<svg id="Layer_1" data-name="Layer 1" xmlns="http://www.w3.org/2000/svg" viewBox="0 0 193.49 252"><defs><style>.cls-1{fill:#fff;}.cls-2{fill:#c1272d;}</style></defs><title>PicAlert_Logo</title><path d="M374.49,394.16A11.69,11.69,0,0,1,362.74,406H193.59a11.9,11.9,0,0,1-12-12H181V292c0-6.6,6-11,12.59-11h36.14l8.54-20.6c2.73-4.8,5.4-12.4,12-12.4h14.15l1.79,61.3a37.06,37.06,0,0,1,23.08-.25l1.78-61h15c6.6,0,9.74,5.43,12,12.4L326.6,281h36.14c6.6,0,11.26,4.4,11.26,11V393.34Z" transform="translate(-181 -154)"/><path class="cls-1" d="M315,344.25A36.88,36.88,0,1,1,289.29,309,36.92,36.92,0,0,1,315,344.25Z" transform="translate(-181 -154)"/><circle class="cls-2" cx="97.12" cy="190.25" r="18.16"/><path class="cls-2" d="M261.69,154l2.73,94h26.65l2.73-94H261.69Zm4.52,155.34,0.16,5.66h22.75l0.17-5.91A37.06,37.06,0,0,0,266.21,309.34Z" transform="translate(-181 -154)"/><path class="cls-1" d="M291.07,248l-1.78,61a37.06,37.06,0,0,0-23.08.25L264.42,248h26.65Z" transform="translate(-181 -154)"/><rect x="16.33" y="121" width="24" height="12" rx="6" ry="6"/></svg>