<svg id="Layer_1" data-name="Layer 1" xmlns="http://www.w3.org/2000/svg" viewBox="0 0 32.04 42"><defs><style>.cls-1{fill:#fff;}.cls-2{fill:#c1272d;}</style></defs><title>PicAlert_Logo</title><path d="M213,193.88a2.11,2.11,0,0,1-2,2.12h-28a2.09,2.09,0,0,1-2-2H181V176.82a2,2,0,0,1,2.08-1.82h6l1.41-3.18c0.45-.79.89-1.82,2-1.82h2.34l0.3,9.91a6.14,6.14,0,0,1,2-.44,6.23,6.23,0,0,1,1.85.45L199.2,170h2.48c1.09,0,1.61.67,2,1.82l1.41,3.18h6a1.82,1.82,0,0,1,1.94,1.82v16.76Z" transform="translate(-181 -154)"/><path class="cls-1" d="M203.17,185.46a6.1,6.1,0,1,1-4.26-5.82A6.11,6.11,0,0,1,203.17,185.46Z" transform="translate(-181 -154)"/><circle class="cls-2" cx="16.06" cy="31.46" r="3"/><path class="cls-2" d="M194.34,154l0.45,16h4.41l0.45-16h-5.31Zm0.75,25.88,0,1.12h3.76l0-1.16A6.13,6.13,0,0,0,195.09,179.88Z" transform="translate(-181 -154)"/><path class="cls-2" d="M199.2,170l-0.29,9.87a4.31,4.31,0,0,0-3.82.1l-0.3-10h4.41Z" transform="translate(-181 -154)"/><rect x="2.7" y="20.01" width="3.97" height="1.98" rx="0.99" ry="0.99"/></svg>